<svg xmlns="http://www.w3.org/2000/svg" viewBox="0 0 24 24" fill="white">
  <path d="M23.09 11.27a3.303 3.303 0 0 0-.314-1.418 3.616 3.616 0 0 0-.494-.738 3.64 3.64 0 0 0 .067-.705A3.624 3.624 0 0 0 18.73 4.8a3.624 3.624 0 0 0-2.498.994 3.615 3.615 0 0 0-.78-.246 3.616 3.616 0 0 0-.588-.07 3.625 3.625 0 0 0-3.107-1.75 3.625 3.625 0 0 0-3.107 1.75 3.616 3.616 0 0 0-.587.07 3.615 3.615 0 0 0-.78.246A3.624 3.624 0 0 0 4.8 4.8a3.624 3.624 0 0 0-3.624 3.62 3.64 3.64 0 0 0 .068.705 3.616 3.616 0 0 0-.494.738 3.303 3.303 0 0 0-.314 1.418c0 .495.106.976.314 1.418a3.616 3.616 0 0 0 .494.738 3.64 3.64 0 0 0-.068.705A3.624 3.624 0 0 0 4.8 17.566a3.624 3.624 0 0 0 2.498-.993 3.615 3.615 0 0 0 .78.246c.192.04.389.063.587.07a3.625 3.625 0 0 0 3.107 1.749 3.625 3.625 0 0 0 3.107-1.75 3.616 3.616 0 0 0 .588-.07 3.615 3.615 0 0 0 .78-.246 3.624 3.624 0 0 0 2.498.993A3.624 3.624 0 0 0 22.37 13.2a3.64 3.64 0 0 0-.067-.705 3.616 3.616 0 0 0 .494-.738 3.303 3.303 0 0 0 .314-1.418zM12 15.928A4.927 4.927 0 1 1 12.001 6.07 4.927 4.927 0 0 1 12 15.928z"/>
</svg>
