<svg xmlns="http://www.w3.org/2000/svg" viewBox="0 0 24 24" fill="white">
  <path d="M3.003 14.547c.019.092.061.175.124.242a3.636 3.636 0 0 0 2.026 1.031l.238.038-.012.24c-.016.351.058.7.213.997a2.07 2.07 0 0 0 1.088.956c.2.079.363.224.455.41.26.51.693.913 1.225 1.137.235.098.48.147.727.147.22 0 .44-.038.647-.113a.578.578 0 0 1 .401.002 2.39 2.39 0 0 0 1.587.036 2.444 2.444 0 0 0 1.165-.799.579.579 0 0 1 .37-.208c.286-.037.562-.132.81-.282.597-.36.985-.97 1.04-1.647a.55.55 0 0 1 .166-.36c.36-.348.581-.826.594-1.32a.553.553 0 0 1 .213-.416c.42-.33.692-.826.744-1.374a2.036 2.036 0 0 0-.387-1.416.556.556 0 0 1-.097-.462c.115-.477.072-.982-.13-1.45a2.04 2.04 0 0 0-.972-1.006.55.55 0 0 1-.3-.354 2.047 2.047 0 0 0-.735-1.1 2.015 2.015 0 0 0-1.28-.407.55.55 0 0 1-.43-.19 2.028 2.028 0 0 0-1.246-.668 2.037 2.037 0 0 0-1.39.33.554.554 0 0 1-.465.074 2.025 2.025 0 0 0-1.378.076 2.044 2.044 0 0 0-1.031 1.024.553.553 0 0 1-.34.3 2.039 2.039 0 0 0-1.098.843 2.065 2.065 0 0 0-.295 1.372.554.554 0 0 1-.135.45 2.044 2.044 0 0 0-.498 1.39c.016.37.142.728.365 1.027a.55.55 0 0 1 .097.462 2.059 2.059 0 0 0 .075 1.139zm8.949-7.882c.222-.086.449-.13.675-.13.584 0 1.143.254 1.535.7.157.178.37.296.6.333.45.073.844.337 1.082.73.237.39.29.863.144 1.297a.993.993 0 0 0 .118.875c.215.3.319.665.292.033-.073 1.04-.7 1.47-1.395a.997.997 0 0 0-.334.672 1.476 1.476 0 0 1-.449.98.994.994 0 0 0-.294.648 1.495 1.495 0 0 1-.773 1.224 1.497 1.497 0 0 1-.603.209.995.995 0 0 0-.647.364 1.49 1.49 0 0 1-.861.495 1.477 1.477 0 0 1-1.042-.169.998.998 0 0 0-.717-.002 1.476 1.476 0 0 1-1.175-.07 1.494 1.494 0 0 1-.77-.906.995.995 0 0 0-.487-.608 1.49 1.49 0 0 1-.813-.712 1.476 1.476 0 0 1-.112-.744.995.995 0 0 0-.21-.723 1.478 1.478 0 0 1-.32-.988c.025-.367.18-.713.437-.972a.996.996 0 0 0 .24-.813 1.49 1.49 0 0 1 .235-1.028 1.481 1.481 0 0 1 .806-.584.997.997 0 0 0 .605-.534 1.483 1.483 0 0 1 .759-.74z"/>
</svg>
