<svg xmlns="http://www.w3.org/2000/svg" viewBox="0 0 24 24" fill="white">
  <path d="M11.998 0C5.366 0 0 5.367 0 12c0 6.634 5.366 12 11.998 12C18.633 24 24 18.634 24 12c0-6.633-5.367-12-12.002-12zM12 2.388c.49.001.98.044 1.463.129l-1.02 5.163a1.496 1.496 0 0 0-.885 0L10.54 2.517A9.675 9.675 0 0 1 12 2.388zm-3.11.84 2.698 4.53a1.494 1.494 0 0 0-.617.617L6.44 5.679a9.75 9.75 0 0 1 2.448-2.45zM15.11 3.23a9.759 9.759 0 0 1 2.447 2.449l-4.531 2.696a1.494 1.494 0 0 0-.617-.617zm3.29 3.42a9.647 9.647 0 0 1 1.289 3.056l-5.163 1.02a1.495 1.495 0 0 0-.444-.443l1.318-5.161a9.58 9.58 0 0 1 3 1.528zM5.6 6.65l1.317 5.162a1.49 1.49 0 0 0-.443.442L1.31 11.235a9.69 9.69 0 0 1 4.29-4.584zM1.31 12.766l5.163-1.02c.1.17.23.317.382.442l-1.318 5.162a9.686 9.686 0 0 1-4.227-4.584zm5.13 5.559 4.53-2.695c.142.15.31.27.497.36l-1.02 5.163a9.755 9.755 0 0 1-4.008-2.828zm5.024 3.086 1.02-5.162c.17-.022.337-.07.493-.142l4.531 2.695a9.757 9.757 0 0 1-6.044 2.609zm7.008-3.586-4.531-2.695a1.491 1.491 0 0 0 .23-.849l5.162-1.02a9.74 9.74 0 0 1-.86 4.564zm.646-5.53-5.163 1.02a1.49 1.49 0 0 0-.443-.443l1.318-5.162a9.629 9.629 0 0 1 4.288 4.585z"/>
</svg>
