<svg xmlns="http://www.w3.org/2000/svg" viewBox="0 0 24 24" fill="white">
  <path d="M12.504 0c-.155 0-.315.008-.48.021-4.226.333-3.105 4.807-3.17 6.298-.076 1.092-.3 1.953-1.05 3.02-.885 1.051-2.127 2.75-2.716 4.521-.278.832-.41 1.684-.287 2.489.117.779.567 1.563 1.182 2.114.302.271.648.568 1.16.7.496.129 1.076.048 1.658-.277.63-.348.93-.874 1.228-1.48a8.71 8.71 0 0 1 .57-1.064c.283-.383.66-.694 1.065-.957a4.22 4.22 0 0 1 2.178-.603c1.337 0 2.608.54 3.396 1.393.49.525.87 1.186 1.108 1.9.234.699.307 1.451.258 2.199-.093 1.447-.534 2.703-1.256 3.643C14.64 22.18 13.2 23 12.504 23c-.698 0-1.392-.26-2-.617a3.48 3.48 0 0 1-1.25-1.28 4.024 4.024 0 0 1-.476-1.898 6.286 6.286 0 0 0-.083-.985 1.36 1.36 0 0 0-.227-.538c-.135-.19-.34-.337-.578-.396a1.43 1.43 0 0 0-.647-.005c-.447.103-.833.413-1.032.837-.312.663-.308 1.514.009 2.27.315.762.888 1.397 1.614 1.773.69.36 1.47.497 2.235.452.765-.046 1.51-.265 2.206-.631a7.49 7.49 0 0 0 1.945-1.618c.54-.652.957-1.428 1.188-2.259.232-.83.28-1.718.11-2.58a6.478 6.478 0 0 0-.846-2.228 5.54 5.54 0 0 0-1.613-1.684 5.506 5.506 0 0 0-2.167-.866 5.79 5.79 0 0 0-2.26.086 5.547 5.547 0 0 0-2.013.998 5.77 5.77 0 0 0-1.43 1.633c-.38.624-.598 1.314-.628 2.014a3.16 3.16 0 0 1-.065.594c-.072.348-.234.657-.476.897a2.2 2.2 0 0 1-.89.52 2.14 2.14 0 0 1-1.004.01 2.174 2.174 0 0 1-.89-.487 2.16 2.16 0 0 1-.573-.904 3.74 3.74 0 0 1-.114-1.508c.088-.748.34-1.5.764-2.184a9.128 9.128 0 0 1 1.617-2.003c.662-.604 1.402-1.065 2.19-1.302.773-.233 1.577-.246 2.35-.019.757.221 1.462.653 2.063 1.245.59.581 1.078 1.31 1.414 2.14.327.81.5 1.69.5 2.574 0 1.56-.541 3.06-1.47 4.14-.935 1.086-2.225 1.73-3.556 1.73h-.01a3.5 3.5 0 0 1-2.504-1.043 3.39 3.39 0 0 1-1.034-2.422c0-.476.098-.946.282-1.375a3.38 3.38 0 0 1 .805-1.12 3.53 3.53 0 0 1 1.193-.71 3.565 3.565 0 0 1 1.384-.175c.47.04.928.18 1.34.4.41.224.77.536 1.053.91.277.365.48.795.59 1.254.112.458.124.95.033 1.432a4.27 4.27 0 0 1-.604 1.468c-.304.448-.706.81-1.17 1.048-.463.238-.97.348-1.482.316a2.8 2.8 0 0 1-1.434-.535 2.827 2.827 0 0 1-.912-1.173 2.87 2.87 0 0 1-.185-1.515c.077-.525.315-1.02.688-1.408l1.23 1.125a1.44 1.44 0 0 0-.317.66c-.065.263-.042.545.065.796.107.253.29.47.52.62.235.153.51.24.793.25.29.01.584-.07.845-.22.257-.15.475-.371.628-.635.15-.265.236-.567.248-.876a2.03 2.03 0 0 0-.27-.977 2.06 2.06 0 0 0-.711-.738 2.045 2.045 0 0 0-1.97-.096c-.318.147-.598.37-.82.64-.226.273-.38.6-.455.947a2.5 2.5 0 0 0-.025 1.039c.09.348.27.67.52.93.253.26.566.45.91.555.344.103.71.12 1.065.05a2.95 2.95 0 0 0 .977-.38c.3-.182.56-.426.764-.715.21-.29.36-.62.443-.97.09-.35.107-.717.054-1.072a3.26 3.26 0 0 0-.393-1.07 3.3 3.3 0 0 0-.77-.876 3.322 3.322 0 0 0-1.088-.54 3.35 3.35 0 0 0-1.23-.13c-.415.04-.82.17-1.184.384a3.27 3.27 0 0 0-.908.813 3.24 3.24 0 0 0-.536 1.133 3.23 3.23 0 0 0 .049 1.311c.14.43.375.83.686 1.162.312.332.695.59 1.116.755.418.163.87.228 1.317.186.448-.043.886-.18 1.277-.4.39-.22.73-.52.998-.88.27-.362.462-.78.566-1.22.105-.44.118-.9.04-1.35a4.09 4.09 0 0 0-.524-1.346 4.103 4.103 0 0 0-1.003-1.097c-.41-.3-.88-.51-1.375-.614a4.11 4.11 0 0 0-1.506-.011 4.12 4.12 0 0 0-1.397.534 4.088 4.088 0 0 0-1.068 1.02 4.04 4.04 0 0 0-.635 1.367c-.13.498-.16 1.01-.085 1.513a4.82 4.82 0 0 0 .6 1.67c.29.499.68.93 1.14 1.256.46.324.985.536 1.535.615.55.08 1.115.025 1.64-.16a4.855 4.855 0 0 0 1.448-.86c.42-.362.77-.804 1.034-1.3a5.12 5.12 0 0 0 .493-1.623c.093-.577.078-1.17-.045-1.739a5.36 5.36 0 0 0-.738-1.726 5.41 5.41 0 0 0-1.35-1.398 5.385 5.385 0 0 0-1.855-.855 5.415 5.415 0 0 0-2.048-.063c-.686.117-1.348.38-1.94.77a5.413 5.413 0 0 0-1.507 1.455 5.366 5.366 0 0 0-.853 1.93c-.175.716-.194 1.462-.06 2.19.133.725.41 1.418.81 2.035.4.615.923 1.15 1.53 1.56.607.41 1.288.692 2.004.824.716.13 1.453.105 2.16-.073a6.21 6.21 0 0 0 1.91-.832c.577-.4 1.074-.915 1.455-1.52.38-.603.64-1.28.756-1.993.116-.712.09-1.445-.078-2.152a6.523 6.523 0 0 0-.95-2.12 6.51 6.51 0 0 0-1.66-1.677 6.538 6.538 0 0 0-2.24-1.012 6.57 6.57 0 0 0-2.47-.036 6.5 6.5 0 0 0-2.29.88 6.47 6.47 0 0 0-1.78 1.729 6.43 6.43 0 0 0-1.018 2.32c-.197.875-.213 1.78-.05 2.666.163.883.51 1.73 1.014 2.474a7.11 7.11 0 0 0 1.85 1.883c.742.5 1.586.857 2.47.997.884.14 1.79.07 2.64-.206a7.15 7.15 0 0 0 2.256-1.176 7.1 7.1 0 0 0 1.654-1.907c.43-.756.702-1.6.8-2.48.1-.882.017-1.787-.245-2.65a7.62 7.62 0 0 0-1.17-2.422c-.526-.72-1.2-1.322-1.978-1.761-.777-.44-1.64-.71-2.53-.79z"/>
</svg>
